
<svg width="28" height="28" viewBox="0 0 28 28" fill="none" xmlns="http://www.w3.org/2000/svg">
<path d="M23.7124 19.9448C22.5507 19.2831 21.3205 18.7334 20.0407 18.3042V17.508C20.6474 17.1396 20.8807 16.1955 21.2428 14.5268C21.2895 14.3116 21.3362 14.0893 21.3875 13.8715C21.8747 12.9419 22.4591 12.06 23.1319 11.2386C24.2342 9.79483 25.3719 8.30296 25.2571 6.54421L25.1815 6.28608C24.6904 5.26356 23.9878 4.34262 23.1144 3.57664C22.2408 2.81058 21.2139 2.21479 20.093 1.82358C19.5327 1.64237 18.9594 1.49887 18.3775 1.39396C18.1824 1.35546 18.0144 1.32221 17.8735 1.28808L17.824 1.27933C16.5478 1.03398 15.2504 0.898706 13.9479 0.875073C13.4012 0.873183 12.855 0.908243 12.3136 0.980081C11.5971 1.12017 10.9042 1.35064 10.2538 1.66521C9.54583 2.01739 8.78078 2.25767 7.9895 2.37658L7.8187 2.40808C6.80808 2.66131 5.9343 3.25841 5.36777 4.08283L5.2819 4.19571L5.21283 4.30683C4.7148 5.28779 4.5833 6.39729 4.8395 7.45683L4.85443 7.51021C5.0411 8.07371 5.26696 8.62058 5.48256 9.14996C5.94466 10.1621 6.27917 11.2213 6.47937 12.3061L6.56337 12.5406C6.74695 12.9021 6.8905 13.2803 6.99177 13.6693C7.23966 14.7584 7.77959 15.7703 8.5607 16.6093V16.6968V17.9446C7.01986 18.6281 5.51971 19.3893 4.0667 20.2248C3.55523 20.581 2.8851 21.4498 4.11336 22.1805C5.05696 22.7413 8.06603 24.214 8.0567 24.2988C7.95468 25.1053 8.17038 25.9191 8.66337 26.587C8.98854 26.9153 9.38586 27.1737 9.82779 27.3444C10.2697 27.5151 10.7459 27.594 11.2235 27.5757C12.1979 27.5891 13.1454 27.276 13.8956 26.6928C14.0533 26.5618 14.1954 26.4151 14.3194 26.2553C14.4437 26.415 14.586 26.5618 14.744 26.6928C15.4942 27.276 16.4417 27.5891 17.4162 27.5757C17.8937 27.594 18.3698 27.5151 18.8118 27.3444C19.2537 27.1737 19.651 26.9153 19.9763 26.587C20.5239 25.8042 20.7279 24.8534 20.5456 23.9331C20.5456 23.9331 22.584 22.5156 23.5398 21.6686C23.6888 21.5779 23.8141 21.4568 23.9062 21.3144C23.9982 21.1719 24.0547 21.0117 24.0713 20.8459C24.0879 20.68 24.0642 20.5128 24.002 20.3568C23.9399 20.2007 23.8409 20.0599 23.7124 19.9448Z" fill="white"/>
<path d="M21.4717 19.4491C22.1366 19.639 22.749 19.9633 23.2655 20.3993C23.3099 20.4236 23.347 20.4578 23.3736 20.4989C23.4001 20.54 23.4153 20.5867 23.4177 20.6347C23.4177 20.7811 23.301 20.9215 23.0677 21.0556C22.6426 21.3216 22.2323 21.6078 21.8385 21.9131C21.4509 22.2117 21.0434 22.487 20.6186 22.7373C20.5632 22.7641 20.5018 22.7786 20.4394 22.7793C20.3524 22.7802 20.2685 22.7488 20.2061 22.6918C20.1751 22.6659 20.1502 22.6341 20.1332 22.5985C20.1161 22.5629 20.1072 22.5244 20.1071 22.4853C20.108 22.4165 20.1366 22.3505 20.1874 22.3007C20.3206 22.1412 20.4928 22.0142 20.6895 21.9306C20.9178 21.8119 21.134 21.674 21.3354 21.5185C21.6466 21.2851 21.8618 21.1308 21.9813 21.0556C22.2445 20.9325 22.3761 20.845 22.3761 20.7931C22.3759 20.7815 22.3727 20.7701 22.3667 20.7598C22.2051 20.5099 21.954 20.3221 21.6583 20.2296C21.3653 20.1515 21.0691 20.0701 20.7698 19.9855C20.4713 19.9156 20.2005 19.7667 19.9895 19.5567C19.9774 19.5393 19.9712 19.5189 19.9718 19.4981C19.9821 19.4114 20.0271 19.3316 20.0978 19.275C20.1273 19.2405 20.1639 19.212 20.2054 19.1911C20.247 19.1701 20.2926 19.1573 20.3395 19.1533C20.3866 19.1421 20.4348 19.1366 20.4833 19.1367C20.6601 19.1453 20.8336 19.1851 20.9947 19.254C21.1503 19.3158 21.309 19.3806 21.4707 19.4482L21.4717 19.4491ZM7.47074 19.17C7.59208 19.1654 7.71117 19.2014 7.80674 19.2715C7.84613 19.2988 7.87833 19.3342 7.90082 19.375C7.92332 19.4158 7.93554 19.4609 7.93648 19.5068C7.93638 19.5396 7.92929 19.5719 7.91548 19.602C7.90166 19.6321 7.8815 19.6593 7.85621 19.6818C7.50005 19.9722 7.08518 20.1924 6.63634 20.3293C6.18405 20.4647 5.7844 20.7222 5.48741 21.0696C5.91254 21.303 6.35298 21.5108 6.80621 21.6917C7.67365 22.0563 8.12221 22.2441 8.15208 22.2552C8.20397 22.2744 8.2483 22.3082 8.27892 22.3518C8.30944 22.3956 8.32484 22.4471 8.32288 22.4993C8.32904 22.5679 8.31616 22.6368 8.28564 22.6993C8.25502 22.7618 8.2078 22.8159 8.14834 22.8563C8.02356 22.9534 7.8662 23.0058 7.70408 23.0042C7.64014 23.0041 7.57677 22.9926 7.51741 22.9701C7.42445 22.8857 7.32561 22.807 7.22154 22.7347C6.43194 22.3311 5.58858 21.947 4.69128 21.5823C4.59794 21.5491 4.51208 21.5176 4.42248 21.4905C4.37254 21.4725 4.3283 21.443 4.29368 21.4048C4.25914 21.3667 4.23534 21.3208 4.22461 21.2717C4.2289 21.1436 4.26138 21.0177 4.32 20.9019C4.37861 20.7861 4.46214 20.6829 4.56528 20.5988C4.98892 20.312 5.44644 20.0721 5.92888 19.884C6.40609 19.7021 6.85558 19.4617 7.26541 19.1691L7.47074 19.17Z" fill="#4A352A"/>
<path d="M13.1049 19.1659C12.9932 19.0032 12.8534 18.8588 12.6914 18.7389C12.562 18.6546 12.4075 18.6108 12.2499 18.6138C12.1972 18.6122 12.1448 18.6213 12.0959 18.6401L11.1001 18.9621C11.0366 18.9804 10.9704 18.9893 10.9041 18.9883C10.7903 18.9926 10.6782 18.9619 10.5849 18.9008C10.4663 18.8032 10.3657 18.6879 10.2871 18.5596L10.0137 18.7346C10.1317 18.9112 10.2811 19.0678 10.4551 19.1974C10.5945 19.2797 10.7574 19.3199 10.9218 19.3129C11.0049 19.3129 11.0876 19.3017 11.1673 19.2797L12.0782 18.9708C12.1411 18.9485 12.2078 18.9373 12.2751 18.9376C12.3736 18.9329 12.4712 18.9565 12.5551 19.0049C12.6695 19.0931 12.769 19.1969 12.8501 19.3129L13.1095 19.1677" fill="#4A352A"/>
<path fill-rule="evenodd" clip-rule="evenodd" d="M19.8156 24.3114C20.315 27.1114 16.661 27.3836 15.162 26.1262C14.126 25.2573 14.4154 24.0498 15.9031 24.1233C17.2098 24.1881 17.9835 25.7692 19.8156 24.3114Z" fill="#4A352A"/>
<path fill-rule="evenodd" clip-rule="evenodd" d="M8.72228 24.3114C8.22295 27.1114 11.8769 27.3836 13.3759 26.1262C14.4119 25.2573 14.1225 24.0498 12.6348 24.1233C11.3281 24.1881 10.5544 25.7692 8.72228 24.3114Z" fill="#4A352A"/>
<path d="M12.3057 20.2462C12.1236 20.1318 11.9078 20.0739 11.6888 20.0808C11.4233 20.0709 11.1646 20.1598 10.9692 20.3285C10.8591 20.4287 10.7784 20.5538 10.7346 20.6917C10.6908 20.8295 10.6854 20.9756 10.719 21.116C10.7448 21.3834 10.8545 21.6376 11.0345 21.8466C11.1093 21.9436 11.2074 22.0228 11.3209 22.0778C11.4344 22.1328 11.56 22.1621 11.6878 22.1633C11.8581 22.1601 12.0248 22.1174 12.1732 22.0391C12.3308 21.9322 12.4549 21.7874 12.5325 21.6201C12.61 21.4527 12.638 21.269 12.6137 21.088C12.6366 20.9348 12.6205 20.7788 12.567 20.6325C12.5135 20.4863 12.4239 20.3539 12.3057 20.2462ZM11.6757 21.361C11.6136 21.361 11.553 21.3437 11.5014 21.3114C11.4499 21.2791 11.4097 21.2332 11.386 21.1795C11.3622 21.1258 11.356 21.0666 11.3681 21.0096C11.3802 20.9526 11.4101 20.9002 11.4539 20.8591C11.4978 20.8179 11.5537 20.7899 11.6145 20.7786C11.6753 20.7673 11.7384 20.773 11.7957 20.7954C11.853 20.8176 11.9019 20.8553 11.9365 20.9036C11.9709 20.952 11.9893 21.0088 11.9893 21.067C11.9893 21.1443 11.9567 21.2186 11.8988 21.2736C11.8407 21.3287 11.7619 21.36 11.6794 21.361H11.6757Z" fill="#4A352A"/>
<path d="M14.493 23.8799C14.5832 23.88 14.6727 23.8646 14.7571 23.8344C14.8385 23.8048 14.9152 23.7649 14.9848 23.7154C15.0529 23.666 15.1154 23.6103 15.1715 23.5492C15.2257 23.4911 15.275 23.429 15.319 23.3637C15.3575 23.3077 15.3919 23.2492 15.4216 23.1887C15.4445 23.1424 15.4633 23.0943 15.4776 23.0452C15.4748 23.036 15.4707 23.0271 15.4655 23.0189C15.4605 23.0094 15.4545 23.0004 15.4478 22.9918C15.4412 22.9848 15.4366 22.9813 15.4338 22.9822C15.3655 23.1065 15.276 23.2194 15.1687 23.3164C15.0746 23.3997 14.9635 23.4643 14.842 23.5063C14.7184 23.5475 14.5878 23.5676 14.4566 23.5658C14.3486 23.567 14.2411 23.552 14.1383 23.5212C14.0467 23.4937 13.9609 23.4517 13.8844 23.3969C13.8071 23.3402 13.7384 23.2741 13.68 23.2C13.6165 23.1202 13.5606 23.0354 13.513 22.9463C13.513 22.9463 13.5055 22.9463 13.499 22.955C13.4921 22.9622 13.4861 22.9702 13.4812 22.9787C13.4781 22.9847 13.4766 22.9913 13.4766 22.9979C13.5225 23.116 13.5796 23.2299 13.6474 23.3383C13.711 23.4401 13.7875 23.5344 13.8751 23.6192C13.9559 23.6977 14.0507 23.7625 14.1551 23.8108C14.2595 23.8571 14.3737 23.8813 14.4892 23.8817" fill="#4A352A"/>
<path d="M17.406 20.2257C17.224 20.1113 17.0082 20.0534 16.7891 20.0603C16.5235 20.0504 16.2644 20.1394 16.0686 20.308C15.9587 20.4083 15.8781 20.5333 15.8343 20.6712C15.7905 20.8091 15.785 20.9551 15.8184 21.0955C15.8445 21.3627 15.9546 21.6167 16.1348 21.8252C16.2097 21.9222 16.3078 22.0015 16.4213 22.0566C16.5348 22.1115 16.6604 22.1408 16.7882 22.142C16.9584 22.1386 17.1251 22.0959 17.2735 22.0177C17.4313 21.911 17.5556 21.7665 17.6332 21.5994C17.7109 21.4321 17.7391 21.2484 17.715 21.0675C17.7377 20.9142 17.7217 20.7581 17.668 20.6119C17.6144 20.4656 17.5246 20.3333 17.406 20.2257ZM16.6836 21.3973C16.6216 21.3973 16.561 21.3801 16.5094 21.3478C16.4579 21.3155 16.4176 21.2696 16.3939 21.2159C16.3701 21.1621 16.364 21.103 16.376 21.0459C16.3881 20.989 16.418 20.9366 16.4619 20.8954C16.5057 20.8543 16.5617 20.8263 16.6224 20.815C16.6833 20.8036 16.7464 20.8094 16.8037 20.8317C16.861 20.8539 16.9099 20.8917 16.9444 20.94C16.9789 20.9884 16.9972 21.0451 16.9972 21.1033C16.9972 21.1813 16.9642 21.2561 16.9054 21.3112C16.8466 21.3663 16.7668 21.3973 16.6836 21.3973Z" fill="#4A352A"/>
<path d="M19.5641 16.8845C20.0747 16.6754 20.3369 15.0619 20.6841 13.5595C21.9255 10.8977 24.6975 8.93861 24.5332 6.46236C22.2503 2.28511 19.0676 2.13636 17.7021 1.80386C15.9653 1.43505 14.1758 1.33521 12.4045 1.50811C11.1492 1.68311 9.52146 2.81361 8.01786 2.90811C7.09722 3.13806 6.30939 3.69727 5.82359 4.46561C5.38754 5.31628 5.27078 6.28018 5.49226 7.20086C6.19702 8.79065 6.75076 10.4356 7.14706 12.1166C7.72666 13.0791 7.76772 14.8886 9.09212 16.1084C13.1493 14.2971 16.4636 15.7024 19.5641 16.8845Z" fill="url(#paint0_linear_30_104)"/>
<path d="M19.5163 16.904L19.1374 16.7587C16.0928 15.5932 12.9438 14.3875 9.05737 16.1217L9.03497 16.1313L9.01817 16.1156C8.28177 15.3419 7.77739 14.399 7.55657 13.383C7.44261 12.9455 7.27825 12.521 7.06657 12.1168V12.1055C6.85872 10.9696 6.51077 9.8602 6.02964 8.7997C5.81684 8.2747 5.59657 7.7392 5.4127 7.19145C5.19029 6.26325 5.30733 5.29183 5.74497 4.43345L5.8383 4.31008C6.32634 3.59617 7.08355 3.08097 7.95883 2.8672C8.83579 2.7468 9.68419 2.48667 10.4676 2.09808C11.0636 1.80985 11.697 1.59565 12.352 1.46108C14.1269 1.28389 15.9208 1.38382 17.6608 1.75683C17.8186 1.79533 17.995 1.83033 18.1984 1.87058C19.5751 2.07174 20.8755 2.59499 21.9793 3.39212C23.083 4.18924 23.9547 5.23452 24.5134 6.43108V6.4442C24.616 7.9842 23.5912 9.32558 22.5067 10.7457C21.7912 11.62 21.1749 12.5619 20.668 13.5562C20.6148 13.7925 20.5607 14.0375 20.5084 14.2798C20.2238 15.588 19.9774 16.7176 19.5331 16.8996L19.5163 16.904ZM13.0091 15.1872C15.1466 15.3074 17.2378 15.8211 19.1635 16.6992L19.5154 16.834C19.9195 16.6467 20.1687 15.49 20.4384 14.2667C20.4916 14.0243 20.5448 13.7793 20.5999 13.5361C21.1106 12.5353 21.7319 11.5875 22.4535 10.7081C23.5296 9.29933 24.546 7.96933 24.448 6.45471C22.4404 2.77971 19.7758 2.24858 18.1835 1.93358C17.9791 1.89333 17.8018 1.85833 17.645 1.81983C15.9133 1.44848 14.1279 1.34882 12.3614 1.52495C11.7125 1.65857 11.085 1.87102 10.4947 2.1567C9.7079 2.5473 8.85558 2.80867 7.9747 2.92933C7.11631 3.14143 6.37459 3.64875 5.8971 4.35033L5.80377 4.46845C5.37434 5.313 5.26001 6.26824 5.47897 7.18096C5.66563 7.72433 5.88124 8.26245 6.09404 8.78308C6.57582 9.84428 6.92498 10.9541 7.1347 12.0906C7.34722 12.4978 7.51242 12.9252 7.6275 13.3655C7.84515 14.3629 8.33674 15.2897 9.05363 16.0543C10.2854 15.4892 11.6377 15.1927 13.0091 15.1872Z" fill="#BFAF98"/>
<path fill-rule="evenodd" clip-rule="evenodd" d="M9.21099 17.1649C10.6735 16.4378 14.3285 14.6388 19.2257 17.7931C19.3636 17.0604 19.3778 16.3119 19.2677 15.575C19.1295 13.825 11.8206 11.6865 9.16992 15.5383L9.21099 17.164" fill="url(#paint1_linear_30_104)"/>
<path d="M19.2323 17.8175L19.2137 17.8053C17.409 16.5345 15.1806 15.9079 12.9277 16.0378C11.6197 16.1745 10.3557 16.5617 9.21394 17.1753L9.19248 17.1858V17.163L9.15234 15.5355C9.51802 15.014 9.99262 14.5674 10.5475 14.2225C11.1024 13.8777 11.726 13.6419 12.3807 13.5292C13.6536 13.2912 14.9677 13.3291 16.2223 13.6403C17.9639 14.0559 19.2202 14.8539 19.2781 15.5793C19.3878 16.3174 19.3736 17.067 19.2361 17.8009L19.2323 17.8175ZM13.6463 15.98C15.6525 16.0307 17.5943 16.6554 19.2109 17.7703C19.3443 17.0459 19.3568 16.3065 19.2482 15.5784C19.1931 14.8784 17.9173 14.0699 16.2149 13.663C14.965 13.3533 13.6561 13.3152 12.3882 13.5519C11.738 13.664 11.1188 13.8982 10.5676 14.2405C10.0166 14.5827 9.545 15.0259 9.18128 15.5434L9.22141 17.1429C10.3604 16.532 11.6208 16.1466 12.9249 16.0107C13.167 15.9897 13.4083 15.9792 13.6491 15.9792L13.6463 15.98Z" fill="#C9BDA9"/>
<path fill-rule="evenodd" clip-rule="evenodd" d="M7.1522 4.1909C6.92727 5.25577 7.93247 8.6184 7.59647 10.3841C7.23238 9.13981 6.97272 7.87071 6.81993 6.5884C6.59267 5.99436 6.27487 5.43436 5.87633 4.9259C5.57393 4.6634 6.567 3.12952 7.15127 4.18915" fill="url(#paint2_linear_30_104)"/>
<path d="M9.44898 15.0161V15.0108C8.12365 13.5575 7.58232 11.055 7.11565 8.94446C6.75072 7.26971 6.43898 5.84259 5.83792 5.39196C5.764 5.29956 5.71733 5.19062 5.70258 5.07609C5.68074 4.86224 5.72648 4.64707 5.83418 4.45746C5.94105 4.25507 6.09981 4.08069 6.29618 3.94996C6.4248 3.86395 6.57376 3.80839 6.73018 3.78809V3.81609C6.5787 3.8356 6.4346 3.88932 6.31018 3.97271C6.17662 4.12776 6.05818 4.29384 5.95645 4.46884C5.66152 5.02096 6.27285 4.99384 6.51645 5.29484C7.12592 5.75334 7.17632 7.26184 7.54312 8.94096C8.00325 11.048 8.15165 13.547 9.47138 14.9942V14.9995L9.44712 15.0178" fill="#9C8461"/>
<path fill-rule="evenodd" clip-rule="evenodd" d="M9.39667 3.75411C9.17173 4.81986 9.7476 7.26373 9.4116 9.03036C9.0476 7.78602 8.78795 6.51692 8.63507 5.23461C8.32987 4.61423 7.96493 3.90636 7.7512 3.53973C7.56453 3.21248 8.56693 2.76711 9.39667 3.75411Z" fill="url(#paint3_linear_30_104)"/>
<path d="M8.95918 3.38388C8.87051 3.31266 8.76486 3.26243 8.65127 3.23732C8.53759 3.21221 8.41915 3.21299 8.30584 3.23951C8.21428 3.24852 8.12636 3.27853 8.05011 3.32701C7.98478 3.36997 7.94016 3.43533 7.92598 3.50901C7.91291 3.62013 7.83264 3.63938 7.94371 3.84413C8.79752 5.08217 9.29732 6.50536 9.39504 7.97676C9.59198 10.068 9.33344 12.3833 10.81 14.0239L10.7857 14.0414C9.30264 12.3938 9.08424 10.0733 8.88731 7.97851C8.73238 6.33263 8.59051 4.82851 7.86064 3.89751C7.79895 3.83354 7.75154 3.75864 7.72139 3.67718C7.69124 3.59563 7.67892 3.50927 7.68518 3.42326C7.70095 3.34284 7.74995 3.27144 7.82144 3.22463C7.90227 3.17266 7.9956 3.14046 8.09304 3.13101C8.40776 3.10721 8.72127 3.18876 8.97784 3.36113L8.95918 3.38388Z" fill="#9C8461"/>
<path d="M13.0116 1.88419C13.6939 2.95344 12.4395 7.75894 12.2183 10.7821C12.1996 11.0349 9.79161 0.807067 13.0116 1.88419Z" fill="url(#paint4_linear_30_104)"/>
<path d="M12.7242 13.452C11.7592 10.9407 11.1731 8.31546 10.9826 5.65223C10.9087 4.77163 10.984 3.88569 11.2056 3.02723C11.4212 2.34123 11.7955 1.88973 12.3742 1.81273C12.5874 1.78735 12.8039 1.80249 13.0107 1.85735L13.0023 1.88448C12.7927 1.84869 12.5774 1.85499 12.3704 1.90285C11.8851 2.00523 11.942 2.2896 11.6238 2.9336C11.375 3.76056 11.2952 4.62419 11.3886 5.47898C11.802 8.01648 12.3107 11.4745 12.7503 13.4415L12.7204 13.4511" fill="#AA9572"/>
<path d="M14.9891 13.2864C14.9593 13.0817 14.9285 12.8708 14.8958 12.6573C14.3899 9.23516 13.7702 5.04479 15.9421 2.04004L15.9691 2.05491C15.0797 4.28091 14.9574 8.52204 14.8491 9.89054C14.8034 10.482 14.8762 11.749 14.9247 12.6529L15.0181 13.282H14.9863" fill="#C3AE8A"/>
<path d="M17.3481 13.7298C17.4247 11.9553 17.6281 9.8798 17.8073 8.08518C18.2628 5.81893 19.4939 4.7453 19.814 2.45368L19.8196 2.4248C18.712 4.1629 17.9765 6.08668 17.6543 8.08868C17.353 9.954 17.2613 11.8439 17.3808 13.7272H17.3481" fill="url(#paint5_linear_30_104)"/>
<path d="M23.0322 5.14355C22.0532 7.98818 20.8856 10.7689 19.7012 13.5821C19.732 9.85718 21.8637 5.37455 23.0322 5.14355Z" fill="url(#paint6_linear_30_104)"/>
<path d="M19.1426 14.8369C19.6103 14.1987 19.8221 13.4261 19.7408 12.6555C19.7305 11.7334 19.9075 10.8179 20.2626 9.95791C20.2738 9.92466 20.2915 9.86516 20.3158 9.78291C20.6023 8.84141 21.7559 5.05791 23.1027 5.12791V5.15679C22.0471 5.11916 20.7059 8.86154 20.3876 9.79429C20.3634 9.87304 20.3577 9.92204 20.3446 9.95879C20.0565 10.8342 19.8802 11.7385 19.8192 12.6529C19.8877 13.4357 19.656 14.2157 19.1659 14.8527L19.1426 14.8334" fill="#9C8461"/>
<defs>
<linearGradient id="paint0_linear_30_104" x1="5.38278" y1="9.15517" x2="24.5402" y2="9.15517" gradientUnits="userSpaceOnUse">
<stop offset="0.04" stop-color="#FAF8E8"/>
<stop offset="0.418" stop-color="#FAF8E8"/>
<stop offset="0.485" stop-color="#F4F0DD"/>
<stop offset="0.599" stop-color="#E4DBC2"/>
<stop offset="0.747" stop-color="#CBB895"/>
<stop offset="0.797" stop-color="#C2AC85"/>
<stop offset="1" stop-color="#AF9672"/>
</linearGradient>
<linearGradient id="paint1_linear_30_104" x1="9.18103" y1="15.5692" x2="19.3405" y2="15.5692" gradientUnits="userSpaceOnUse">
<stop stop-color="#F9F9EC"/>
<stop offset="0.0525879" stop-color="#F9F9EC"/>
<stop offset="0.3844" stop-color="#F9F9EC"/>
<stop offset="0.5145" stop-color="#F5F4E5"/>
<stop offset="0.7094" stop-color="#EAE5D0"/>
<stop offset="0.9441" stop-color="#D9CCAF"/>
<stop offset="0.9987" stop-color="#D4C6A6"/>
</linearGradient>
<linearGradient id="paint2_linear_30_104" x1="5.82033" y1="7.1022" x2="7.66582" y2="7.1022" gradientUnits="userSpaceOnUse">
<stop stop-color="#E5D4BF"/>
<stop offset="1" stop-color="#F2E8D7"/>
</linearGradient>
<linearGradient id="paint3_linear_30_104" x1="8.5506" y1="5.22603" x2="9.72045" y2="5.37399" gradientUnits="userSpaceOnUse">
<stop stop-color="#E9DAC7"/>
<stop offset="0.494" stop-color="#ECE1D2"/>
<stop offset="1" stop-color="#EEE5D7"/>
</linearGradient>
<linearGradient id="paint4_linear_30_104" x1="11.336" y1="6.29568" x2="13.2127" y2="6.29568" gradientUnits="userSpaceOnUse">
<stop stop-color="#E9DAC7"/>
<stop offset="1" stop-color="#EBDECC"/>
</linearGradient>
<linearGradient id="paint5_linear_30_104" x1="18.5947" y1="6.17803" x2="17.727" y2="8.14628" gradientUnits="userSpaceOnUse">
<stop stop-color="#AF9677"/>
<stop offset="1" stop-color="#BFAD8F"/>
</linearGradient>
<linearGradient id="paint6_linear_30_104" x1="19.7012" y1="9.3628" x2="23.0322" y2="9.3628" gradientUnits="userSpaceOnUse">
<stop stop-color="#B29F88"/>
<stop offset="0.255" stop-color="#B4A28B"/>
<stop offset="1" stop-color="#B8A790"/>
</linearGradient>
</defs>
</svg>
